<svg id="Layer_1" data-name="Layer 1" xmlns="http://www.w3.org/2000/svg" xmlns:xlink="http://www.w3.org/1999/xlink" viewBox="0 0 312.55 294.41"><defs><style>.cls-1,.cls-3,.cls-7{fill:#7e70b3;}.cls-2{fill:url(#linear-gradient);}.cls-3{font-size:17.9px;letter-spacing:0.06em;}.cls-10,.cls-3,.cls-6,.cls-7{font-family:Roboto-Bold, Roboto;font-weight:700;}.cls-4{letter-spacing:0.05em;}.cls-5{letter-spacing:0.06em;}.cls-10,.cls-6,.cls-7{font-size:18.75px;}.cls-6{fill:#de5e83;}.cls-10,.cls-6{letter-spacing:0.1em;}.cls-7{letter-spacing:0.1em;}.cls-8{letter-spacing:0.08em;}.cls-9{letter-spacing:0.09em;}.cls-10{fill:#4591ce;}.cls-11{letter-spacing:0.09em;}.cls-12{letter-spacing:0.1em;}</style><linearGradient id="linear-gradient" x1="305.5" y1="311.15" x2="305.5" y2="414.49" gradientUnits="userSpaceOnUse"><stop offset="0" stop-color="#4591ce"/><stop offset="0.5" stop-color="#7e70b3"/><stop offset="1" stop-color="#de5e83"/></linearGradient></defs><polygon class="cls-1" points="219.41 7.38 219.41 5.38 93.73 5.38 4.2 87.88 4.2 204.72 93.73 287.23 220.19 287.23 309.72 204.72 309.72 87.88 220.19 5.38 219.41 5.38 219.41 7.38 218.05 8.85 305.72 89.64 305.72 202.97 218.62 283.23 95.3 283.23 8.2 202.97 8.2 89.64 95.3 9.38 219.41 9.38 219.41 7.38 218.05 8.85 219.41 7.38"/><ellipse class="cls-1" cx="245.98" cy="216.8" rx="6.84" ry="7.38"/><ellipse class="cls-1" cx="305.71" cy="205.71" rx="6.84" ry="7.38"/><ellipse class="cls-1" cx="278.95" cy="147.94" rx="6.84" ry="7.38"/><ellipse class="cls-1" cx="240.56" cy="64.69" rx="6.84" ry="7.38"/><ellipse class="cls-1" cx="216.19" cy="7.38" rx="6.84" ry="7.38"/><ellipse class="cls-1" cx="100.02" cy="7.38" rx="6.84" ry="7.38"/><ellipse class="cls-1" cx="163.8" cy="35.49" rx="6.84" ry="7.38"/><ellipse class="cls-1" cx="217.33" cy="285.23" rx="6.84" ry="7.38"/><ellipse class="cls-1" cx="305.71" cy="89.91" rx="6.84" ry="7.38"/><polygon class="cls-1" points="158.45 36.02 103.87 12.23 105.26 8.87 159.84 32.66 158.45 36.02"/><polygon class="cls-1" points="306.63 90.86 165.39 38.02 166.81 33.99 308.05 86.83 306.63 90.86"/><polygon class="cls-1" points="214.69 6.45 67.18 80.58 68.8 83.97 216.31 9.85 214.69 6.45"/><polygon class="cls-1" points="304.39 207.92 213.96 11.04 216.98 9.54 307.41 206.42 304.39 207.92"/><polygon class="cls-1" points="246.42 213.3 304.27 204.2 304.84 207.85 246.99 216.95 246.42 213.3"/><polygon class="cls-1" points="214.47 281.97 301.23 92.76 304.28 94.25 217.52 283.45 214.47 281.97"/><ellipse class="cls-1" cx="63.72" cy="84.76" rx="6.84" ry="7.38"/><ellipse class="cls-1" cx="7.42" cy="86.65" rx="6.84" ry="7.38"/><ellipse class="cls-1" cx="31.66" cy="147.94" rx="6.84" ry="7.38"/><ellipse class="cls-1" cx="63.72" cy="225.07" rx="6.84" ry="7.38"/><ellipse class="cls-1" cx="93.75" cy="287.03" rx="6.84" ry="7.38"/><ellipse class="cls-1" cx="143.95" cy="262.36" rx="6.84" ry="7.38"/><ellipse class="cls-1" cx="6.84" cy="201.13" rx="6.84" ry="7.38"/><polygon class="cls-1" points="150.99 262.08 216.99 282.98 215.96 286.47 149.96 265.57 150.99 262.08"/><polygon class="cls-1" points="5.53 196.23 142.47 259.39 140.76 263.3 3.82 200.15 5.53 196.23"/><polygon class="cls-1" points="90.38 284.42 240.28 215.73 241.78 219.19 91.88 287.87 90.38 284.42"/><polygon class="cls-1" points="67.68 228.99 93.75 283.62 90.55 285.23 64.48 230.59 67.68 228.99"/><polygon class="cls-1" points="10.83 92.35 63.25 219.67 59.75 221.19 7.34 93.86 10.83 92.35"/><polygon class="cls-1" points="61.3 86.03 10.18 89.91 9.94 86.56 61.06 82.69 61.3 86.03"/><polygon class="cls-1" points="100.02 12.32 9.2 200.22 6.13 198.66 96.95 10.76 100.02 12.32"/><path class="cls-2" d="M278.17,315.39c-.23-1.39,2.13-2.84,3-3.35a19,19,0,0,1,3.53-1.44,32.88,32.88,0,0,1,3.87-1.15,20.76,20.76,0,0,1,4.65-.57,11,11,0,0,1,5,.76,7.56,7.56,0,0,1,3.39,3,7.69,7.69,0,0,1,.84,3.07c.26,1.91-.09,2.15,0,4.7s.43,2.84,0,4a5.71,5.71,0,0,1-1.69,2.4,7.86,7.86,0,0,1-6.34,1.34,6.14,6.14,0,0,1-2.43-1.34c-1.27-1.07-1.1-1.68-2.33-3.16a19.49,19.49,0,0,0-3-2.59c-.95-.75-1.95-1.54-3.27-2.4C279.86,316.41,278.34,316.46,278.17,315.39Zm55.48,0c.23-1.39-2.13-2.84-3-3.35a19.26,19.26,0,0,0-3.53-1.44,33.46,33.46,0,0,0-3.87-1.15,20.76,20.76,0,0,0-4.65-.57,11,11,0,0,0-5,.76,7.5,7.5,0,0,0-3.38,3,7.7,7.7,0,0,0-.85,3.07c-.26,1.91.09,2.15,0,4.7s-.42,2.84,0,4a5.71,5.71,0,0,0,1.69,2.4,7.87,7.87,0,0,0,6.35,1.34,6.22,6.22,0,0,0,2.43-1.34c1.26-1.07,1.09-1.68,2.32-3.16a20,20,0,0,1,3-2.59,40.43,40.43,0,0,1,3.28-2.4C332,316.41,333.47,316.46,333.65,315.39Zm-31.49,16.39a8.33,8.33,0,0,1-2.75,1.44,9.64,9.64,0,0,1-4.23.29,17,17,0,0,1-3.8-1.15,14.91,14.91,0,0,1-3.07-1.34c-1.38-1-1.35-1.73-2.74-3.45a34,34,0,0,0-3.6-3.26c-2.77-2.36-3.67-2.88-4.54-3.26a6.44,6.44,0,0,0-2.86-.77c-.68,0-1.63.16-4.12,1.73a24.23,24.23,0,0,0-4.23,3.16,23.25,23.25,0,0,0-3.8,4.79,38.39,38.39,0,0,0-3.07,6.43c-.33.79-.64,1.87-1.27,4-.49,1.7-.65,2.43-.21,2.88s1.13.28,2.65.28a26.63,26.63,0,0,1,4,.39,11.68,11.68,0,0,1,5.08,2.39,12.38,12.38,0,0,1,3.8,4.61,18.16,18.16,0,0,1,1.06,4.88,21.73,21.73,0,0,1,.31,4.7,36.62,36.62,0,0,1-.74,4,2.67,2.67,0,0,1-.84,1.82,3.28,3.28,0,0,1-2.33.48,3,3,0,0,1-1.79-.77c-.66-.75-.25-1.69,0-3.36a27.19,27.19,0,0,0,0-4.88,14.2,14.2,0,0,0-.53-4.32,7.42,7.42,0,0,0-3.17-3.83,9.68,9.68,0,0,0-3.49-1.06,7.71,7.71,0,0,0-4,0,5.54,5.54,0,0,0-2.32,1.63c-.44.49-1.31,1.63-1.69,4.89a26.68,26.68,0,0,0,0,5.37,47.58,47.58,0,0,0,.63,5.85c.33,1.83.35,1.21,1.59,6.23.7,2.85.83,3.61,1.58,4.79a12.13,12.13,0,0,0,2.75,3,13.08,13.08,0,0,0,3.59,2,11.82,11.82,0,0,0,4.44.87,9.29,9.29,0,0,0,4.23-.87c1.8-.9,2.67-2.27,3.81-4.12,1.42-2.31.9-2.51,2.22-4.69,1-1.62,1.13-1.32,3.91-4.89a23.62,23.62,0,0,1,2.74-3.36,9.81,9.81,0,0,1,3.92-2.49,10.61,10.61,0,0,1,5-.1,14.29,14.29,0,0,1,3.91,1.16c1.66.77,2.22,1.46,2.75,1.24s.41-1.29.42-3.45c0-.21.18-2.51.53-7.09.11-1.42.64-2.34.21-2.59s-1.05.42-2.43,1.05a12.19,12.19,0,0,1-5.18,1.06,10,10,0,0,1-7.92-3.55,17.83,17.83,0,0,1-2.65-3.54c-1.17-1.92-1-2.14-2.21-4.22a23.28,23.28,0,0,0-2.86-4,10.75,10.75,0,0,0-3-2.68c-.57-.31-.88-.4-3.49-1.63a5.69,5.69,0,0,1-1.48-.86c-.25-.23-1.51-1.36-1.16-2.59a3,3,0,0,1,2.33-1.73c1-.19,2.18.32,4.44,1.34a17.49,17.49,0,0,1,3.27,1.73,15.79,15.79,0,0,1,2.86,3c.64.78.71.92,2.53,3.36s2,2.58,2.33,3.16c1.1,1.82.76,1.95,1.8,3.45a12.46,12.46,0,0,0,2.74,2.88,4.74,4.74,0,0,0,1.59.95c.38.1.84.13,4.23-1.05,0,0,.91-.32,2.64-1.05.93-.4,1.1-.5,1.27-.68.75-.78.38-2,.21-3-.33-1.83.23-1.78.42-5.36A36.33,36.33,0,0,0,302.16,331.78Zm6.47,6.24c.19,3.58.75,3.53.42,5.36-.17.95-.54,2.19.21,3,.17.18.34.28,1.27.68,1.73.73,2.64,1.05,2.64,1.05,3.39,1.18,3.85,1.15,4.23,1.05a4.74,4.74,0,0,0,1.59-.95,12.46,12.46,0,0,0,2.74-2.88c1-1.5.7-1.63,1.8-3.45.35-.58.41-.6,2.33-3.16s1.89-2.58,2.53-3.36a15.79,15.79,0,0,1,2.86-3,17.49,17.49,0,0,1,3.27-1.73c2.26-1,3.41-1.53,4.44-1.34a3,3,0,0,1,2.33,1.73c.35,1.23-.91,2.36-1.16,2.59a5.69,5.69,0,0,1-1.48.86c-2.61,1.23-2.92,1.32-3.49,1.63a10.75,10.75,0,0,0-3,2.68,23.28,23.28,0,0,0-2.86,4c-1.22,2.08-1,2.3-2.21,4.22a17.83,17.83,0,0,1-2.65,3.54,10,10,0,0,1-7.92,3.55,12.19,12.19,0,0,1-5.18-1.06c-1.38-.63-2-1.29-2.43-1.05s.1,1.17.21,2.59c.35,4.58.52,6.88.53,7.09,0,2.16-.17,3.21.42,3.45s1.09-.47,2.75-1.24a14.29,14.29,0,0,1,3.91-1.16,10.61,10.61,0,0,1,5,.1,9.81,9.81,0,0,1,3.92,2.49,23.62,23.62,0,0,1,2.74,3.36c2.78,3.57,2.94,3.27,3.91,4.89,1.32,2.18.8,2.38,2.22,4.69,1.14,1.85,2,3.22,3.81,4.12a9.29,9.29,0,0,0,4.23.87,11.82,11.82,0,0,0,4.44-.87,13.08,13.08,0,0,0,3.59-2,12.13,12.13,0,0,0,2.75-3c.75-1.18.88-1.94,1.58-4.79,1.24-5,1.26-4.4,1.59-6.23a47.58,47.58,0,0,0,.63-5.85,26.68,26.68,0,0,0,0-5.37c-.38-3.26-1.25-4.4-1.69-4.89a5.54,5.54,0,0,0-2.32-1.63,7.71,7.71,0,0,0-4,0,9.68,9.68,0,0,0-3.49,1.06,7.42,7.42,0,0,0-3.17,3.83,14.2,14.2,0,0,0-.53,4.32,27.19,27.19,0,0,0,0,4.88c.25,1.67.66,2.61,0,3.36a3,3,0,0,1-1.79.77,3.28,3.28,0,0,1-2.33-.48,2.67,2.67,0,0,1-.84-1.82,36.62,36.62,0,0,1-.74-4,21.73,21.73,0,0,1,.31-4.7,18.16,18.16,0,0,1,1.06-4.88,12.38,12.38,0,0,1,3.8-4.61,11.68,11.68,0,0,1,5.08-2.39,26.63,26.63,0,0,1,4-.39c1.52,0,2.21.15,2.65-.28s.28-1.18-.21-2.88c-.63-2.15-.94-3.23-1.27-4a38.39,38.39,0,0,0-3.07-6.43,23.25,23.25,0,0,0-3.8-4.79,24.23,24.23,0,0,0-4.23-3.16c-2.49-1.57-3.44-1.72-4.12-1.73a6.44,6.44,0,0,0-2.86.77c-.87.38-1.77.9-4.54,3.26a34,34,0,0,0-3.6,3.26c-1.39,1.72-1.36,2.48-2.74,3.45a14.91,14.91,0,0,1-3.07,1.34,17,17,0,0,1-3.8,1.15,9.64,9.64,0,0,1-4.23-.29,8.33,8.33,0,0,1-2.75-1.44A36.33,36.33,0,0,0,308.63,338Zm-9.43,43.9c.62-.41.37-1,.63-4a32.31,32.31,0,0,1,.53-4.31c.32-1.28.6-1.73.32-2.4s-1-1.09-2.43-1.82a13.13,13.13,0,0,0-3-1.15,8.17,8.17,0,0,0-3.7-.38,6.88,6.88,0,0,0-3.49,1.82,12.45,12.45,0,0,0-2.11,2.87c-1.23,1.92-1.85,2.88-2.64,4.32-1.19,2.16-1,2.18-1.91,3.64a26.57,26.57,0,0,1-2.74,3.74c-1.48,1.65-2.21,2.48-3.39,3.06a8.92,8.92,0,0,1-1.85.66,12.3,12.3,0,0,1-3.33.3c-2.3-.06-3.42-.53-3.7-.09-.15.23.09.48.43,1.34a17.6,17.6,0,0,1,.63,2.3,12.21,12.21,0,0,0,1.38,3,17.46,17.46,0,0,0,2.53,2.78c2.7,2.72,2.45,2.51,2.75,2.78a17.06,17.06,0,0,0,4.44,3.26,18.13,18.13,0,0,0,5.6,1.34,11.89,11.89,0,0,0,3.91.19,8.79,8.79,0,0,0,4.44-2.3c1.41-1.28,2-2.57,3.07-5.17.89-2.1.49-1.78,1.9-5.66a23,23,0,0,0,1.06-3.74c.12-.66.41-1,.21-1.34-.45-.76-2.47-.81-4-.29-.78.26-1.13.56-4.33,3.55-2.05,1.91-2.15,2-2.33,2.3-.82,1.33-.73,2.3-1.9,3.26a3.1,3.1,0,0,1-1.59.76,3,3,0,0,1-2.74-1.05c-.74-1-.25-2.25.1-3.16s.77-1.5,3.17-4.12a38,38,0,0,1,3.07-3.17,12.63,12.63,0,0,1,4-2.49,11,11,0,0,1,3.28-.67C297.73,381.72,298.45,382.41,299.2,381.92Zm16.56-.1a11,11,0,0,1,3.28.67,12.63,12.63,0,0,1,4,2.49,38,38,0,0,1,3.07,3.17c2.4,2.62,2.83,3.24,3.17,4.12s.84,2.16.1,3.16a3,3,0,0,1-2.74,1.05,3.1,3.1,0,0,1-1.59-.76c-1.17-1-1.08-1.93-1.9-3.26-.18-.29-.28-.39-2.33-2.3-3.2-3-3.55-3.29-4.33-3.55-1.55-.52-3.57-.47-4,.29-.2.34.09.68.21,1.34a23,23,0,0,0,1.06,3.74c1.41,3.88,1,3.56,1.9,5.66,1.11,2.6,1.66,3.89,3.07,5.17a8.79,8.79,0,0,0,4.44,2.3,11.89,11.89,0,0,0,3.91-.19,18.13,18.13,0,0,0,5.6-1.34,17.06,17.06,0,0,0,4.44-3.26c.3-.27.05-.06,2.75-2.78a17.46,17.46,0,0,0,2.53-2.78,12.65,12.65,0,0,0,1.38-3,17.6,17.6,0,0,1,.63-2.3c.34-.86.58-1.11.43-1.34-.28-.44-1.4,0-3.7.09a12.3,12.3,0,0,1-3.33-.3,8.92,8.92,0,0,1-1.85-.66c-1.18-.58-1.91-1.41-3.39-3.06a26.57,26.57,0,0,1-2.74-3.74c-.89-1.46-.72-1.48-1.91-3.64-.79-1.44-1.41-2.4-2.64-4.32a12.45,12.45,0,0,0-2.11-2.87,6.88,6.88,0,0,0-3.49-1.82,8.17,8.17,0,0,0-3.7.38,13.13,13.13,0,0,0-3,1.15c-1.42.73-2.12,1.09-2.43,1.82s0,1.12.32,2.4a32.31,32.31,0,0,1,.53,4.31c.26,3,0,3.62.63,4S313.53,381.72,315.76,381.82Z" transform="translate(-149.23 -248.79)"/><text class="cls-3" transform="translate(95.9 211.57) scale(1.35 1)">LEAR<tspan class="cls-4" x="47.81" y="0">NI</tspan><tspan class="cls-5" x="67.28" y="0">NG</tspan></text><text class="cls-6" transform="translate(118.12 177.31) scale(1.31 1)">ESSAI</text><text class="cls-7" transform="translate(95.4 195.39) scale(1.35 1)">M<tspan class="cls-8" x="18.3" y="0">A</tspan><tspan class="cls-9" x="32.43" y="0">CHINE</tspan></text><text class="cls-10" transform="translate(121.18 230.7) scale(1.31 1)">C<tspan class="cls-11" x="14.09" y="0">L</tspan><tspan class="cls-12" x="25.84" y="0">UB</tspan></text></svg>